# xmcd
#
# Track frame offsets:
#	150
#	13085
#	20218
#	30874
#	42274
#	49952
#	62382
#	70735
#	85304
#
# Disc length: 1250 seconds
#
# Revision: 1
# Processed by: cddbd v1.4PL0 Copyright (c) Steve Scherf et al.
# Submitted via: CDmax 1.9
#
DISCID=6d04e009
DTITLE=Charlie Moore - The Original Rebel Soldier
DYEAR=1900
DGENRE=Country
TTITLE0=Rebel Soldier
TTITLE1=Lonesome Road Blues
TTITLE2=The Convict and the Rose
TTITLE3=The Best Female Actress of the Year
TTITLE4=Chubby's Lonesome Blues
TTITLE5=Philadelphia Lawyer
TTITLE6=Six White Horses
TTITLE7=Little Blossom
TTITLE8=Cacklin' Hen
EXTD=
EXTT0=
EXTT1=
EXTT2=
EXTT3=
EXTT4=
EXTT5=
EXTT6=
EXTT7=
EXTT8=
PLAYORDER=
